<?xml version="1.0" encoding="utf-8"?>
<!-- Generator: Adobe Illustrator 15.1.0, SVG Export Plug-In . SVG Version: 6.00 Build 0)  -->
<!DOCTYPE svg PUBLIC "-//W3C//DTD SVG 1.1//EN" "http://www.w3.org/Graphics/SVG/1.1/DTD/svg11.dtd">
<svg version="1.1" id="Layer_1" xmlns="http://www.w3.org/2000/svg" xmlns:xlink="http://www.w3.org/1999/xlink" x="0px" y="0px"
	 width="288.167px" height="51.333px" viewBox="0 0 288.167 51.333" enable-background="new 0 0 288.167 51.333"
	 xml:space="preserve">
<rect x="5.5" y="4.167" fill="#FFFFFF" width="269.333" height="45.166"/>
<g enable-background="new    ">
	<path d="M26.412,16.288c-1.199-0.581-2.616-0.836-4.614-0.836c-5.74,0-9.119,4.069-9.119,10.428
		c0,6.976,3.997,11.263,10.354,11.263c1.054,0,2.906-0.109,4.359-1.49c0.981-0.944,1.526-1.816,2.362-3.27
		c0.109-0.036,0.509,0.146,0.509,0.291c-0.509,1.889-1.962,4.433-2.725,4.759c-1.017,0.327-3.016,0.764-5.195,0.764
		c-7.738,0-12.316-4.36-12.316-11.989c0-3.961,1.708-7.775,5.668-9.883c1.925-1.054,4.287-1.707,7.412-1.707
		c2.833,0,5.014,0.581,6.648,0.727c-0.254,1.054-0.618,3.706-0.654,5.123c-0.073,0.108-0.654,0.218-0.654,0.072
		C28.083,17.523,27.538,16.833,26.412,16.288z"/>
	<path d="M31.534,13.563c1.999-0.182,3.416-0.654,4.505-1.163c0.073,0.037,0.145,0.219,0.145,0.291
		c-0.218,0.399-0.254,0.8-0.327,3.088c-0.073,2.58,0,8.502,0,9.701c0,0.036,0.073,0.072,0.145,0.036
		c2.071-1.635,3.706-2.325,5.086-2.325c2.616,0,4.142,2.107,4.142,5.631c0,1.89,0,5.45,0.036,7.049c0,0.108,0,0.399,0.254,0.653
		c0.618,0.473,1.163,0.437,1.962,0.582c0.036,0.072,0,0.508-0.109,0.545c-0.4,0-1.89-0.109-3.306-0.109
		c-1.526,0-2.688,0.072-3.088,0.109c-0.073-0.073-0.073-0.473,0-0.545c0.654-0.109,1.308-0.182,1.563-0.327
		c0.399-0.218,0.581-0.327,0.617-2.071c0.037-1.635,0.146-5.413-0.182-7.229c-0.182-1.018-0.981-2.726-3.524-2.726
		c-1.09,0-2.216,0.4-3.088,1.199c-0.327,0.291-0.508,0.727-0.508,0.944c0,2.435,0,7.412,0.073,8.356
		c0.072,1.163,0.327,1.453,1.017,1.635c0.436,0.109,0.69,0.146,1.271,0.219c0.073,0.072,0.073,0.436,0,0.508
		c-0.327,0-1.526-0.072-3.561-0.072c-1.453,0-2.325,0.109-2.906,0.109c-0.037-0.073-0.073-0.473,0.036-0.545
		c0.545-0.073,0.908-0.109,1.235-0.219c0.618-0.182,0.763-0.617,0.799-1.671c0.036-0.727,0.073-5.522,0.073-6.067
		c0-9.991-0.037-12.68-0.182-14.023c-0.073-0.545-0.218-0.836-0.763-0.945c-0.363-0.072-0.799-0.072-1.417-0.145
		C31.462,13.962,31.498,13.599,31.534,13.563z"/>
	<path d="M54.677,37.651c-0.69,0-2.18-0.109-3.197-0.109c-1.38,0-2.652,0.109-3.161,0.109c-0.073-0.073-0.073-0.473,0-0.545
		c0.509-0.073,1.09-0.146,1.49-0.327c0.399-0.182,0.581-0.399,0.654-1.49c0.073-0.908,0.073-3.887,0.073-5.958
		c0-1.453-0.037-2.616-0.037-3.233c0-0.218,0-0.363-0.182-0.654c-0.363-0.399-0.908-0.545-1.562-0.69
		c-0.073-0.072-0.036-0.472,0-0.545c1.126-0.108,2.616-0.399,3.851-1.017c-0.036,1.017-0.073,3.888-0.073,6.14
		c0,1.998,0,4.505,0.037,6.285c0,0.69,0.254,1.018,0.763,1.199c0.436,0.146,0.654,0.182,1.453,0.291
		C54.786,37.178,54.75,37.614,54.677,37.651z M51.916,19.303c-0.145,0.072-0.908,0.182-1.126,0.072
		c-0.4-0.182-0.69-0.653-0.69-1.234c0-0.255,0.036-0.509,0.182-0.69c0.218-0.255,0.763-0.509,1.199-0.509
		c0.4,0,0.763,0.218,0.836,0.29c0.218,0.182,0.291,0.546,0.291,0.728C52.606,18.613,52.279,19.158,51.916,19.303z"/>
	<path d="M55.839,24.499c1.09-0.218,2.943-0.98,3.924-1.707c0.073-0.037,0.254,0.145,0.218,0.218
		c-0.073,0.399-0.109,1.743-0.109,2.507c0,0.036,0.146,0.036,0.146,0.036c2.398-1.671,4.033-2.361,5.268-2.361
		c1.417,0,2.616,0.727,3.415,1.635c1.126,1.271,1.599,3.124,1.599,4.505c0,2.688-1.054,4.832-3.161,6.54
		c-1.671,1.344-3.997,2.106-5.559,2.106c-0.399,0-1.053-0.145-1.598-0.29c0,0-0.146,0.072-0.146,0.146
		c0,4.178,0.073,5.74,0.109,7.084c0.073,1.199,0.327,1.309,1.199,1.453c0.472,0.073,0.981,0.109,1.78,0.182
		c0.073,0.073,0.037,0.545-0.072,0.582h-1.926c-3.161,0.036-4.542,0.399-5.377,0.436c-0.073-0.072-0.109-0.545,0-0.617
		c0.399-0.073,1.054-0.255,1.453-0.4c0.618-0.218,0.799-0.617,0.836-1.562c0.072-1.345,0.109-3.997,0.109-9.338
		c0-6.14,0-7.884-0.109-8.974c-0.037-0.545-0.073-0.944-0.4-1.198c-0.254-0.182-0.872-0.363-1.671-0.473
		C55.694,24.935,55.73,24.571,55.839,24.499z M60.308,26.097c-0.182,0.146-0.436,0.509-0.436,0.836
		c-0.072,0.727-0.072,6.14-0.036,6.938c0.036,1.199,0.327,1.636,0.908,2.035c0.618,0.436,1.49,0.69,2.761,0.69
		c1.126,0,2.18-0.437,2.943-1.09c1.199-1.018,1.78-2.688,1.78-4.905c0-1.816-0.545-3.379-1.308-4.287
		c-0.872-1.017-1.962-1.525-3.197-1.525C62.415,24.79,61.325,25.261,60.308,26.097z"/>
</g>
<g enable-background="new    ">
	<path d="M82.081,33.245c0.436-0.102,0.479-0.334,0.596-0.828c0.116-0.508,1.002-5.97,1.075-6.652
		c0.029-0.451,0.146-0.741-0.16-0.843c-0.189-0.073-0.479-0.102-0.828-0.146c-0.015-0.029,0-0.188,0.029-0.218
		c0.218,0,0.857,0.044,1.569,0.044h3.022c0.334,0,0.842-0.015,1.146-0.073c0.016,0,0.044,0.044,0.044,0.073
		c-0.188,0.377-0.334,1.118-0.493,1.845c-0.016,0.058-0.189,0.058-0.219,0.015c0.029-0.479,0-0.872-0.029-1.031
		c-0.058-0.306-0.203-0.437-0.508-0.451c-0.465-0.028-1.917-0.043-2.412-0.028c-0.102,0-0.203,0.13-0.218,0.247
		c-0.131,0.58-0.566,3.21-0.61,3.646c0,0.015,0,0.059,0.043,0.059c0.377,0,1.859,0,2.222-0.015c0.567-0.029,0.697-0.16,0.843-0.465
		l0.218-0.523c0.029-0.029,0.188-0.015,0.218,0.015c-0.072,0.262-0.246,0.959-0.305,1.308c-0.044,0.275-0.102,0.799-0.131,1.177
		c-0.029,0.043-0.189,0.043-0.218,0.015c-0.015-0.262-0.029-0.465-0.058-0.625c-0.044-0.262-0.189-0.45-0.509-0.479
		c-0.451-0.044-1.903-0.044-2.354-0.044c-0.015,0-0.043,0.029-0.043,0.044c-0.131,0.857-0.392,2.557-0.465,3.123
		c-0.058,0.45-0.073,0.712,0.319,0.784c0.174,0.044,0.407,0.073,0.77,0.117c0.029,0.043,0.015,0.188-0.029,0.218
		c-0.363,0-0.915-0.044-1.641-0.044c-0.683,0-1.148,0.044-1.54,0.044c-0.029-0.044-0.029-0.175,0.015-0.218
		C81.747,33.303,81.906,33.289,82.081,33.245z"/>
	<path d="M90.741,32.17c0.015,0.043,0,0.218-0.029,0.261c-0.653,0.944-1.365,1.308-1.496,1.308c-0.232,0-0.319-0.406-0.115-1.38
		l0.653-3.327c0.044-0.261,0.044-0.377-0.044-0.377c-0.145,0-0.465,0.262-0.712,0.479c0,0-0.028,0-0.028-0.015
		c-0.016-0.044,0-0.203,0.028-0.232c0.479-0.566,1.235-1.147,1.468-1.147c0.145,0,0.188,0.188,0.043,0.944
		c-0.203,1.002-0.639,3.035-0.711,3.719c-0.029,0.261,0,0.392,0.13,0.392c0.16,0,0.393-0.203,0.784-0.653
		C90.711,32.141,90.741,32.156,90.741,32.17z M90.944,25.545c0.073,0.073,0.088,0.175,0.088,0.232c0,0.232-0.146,0.422-0.232,0.465
		c-0.102,0.059-0.363,0.073-0.451,0.044c-0.13-0.044-0.188-0.188-0.188-0.378c0.015-0.102,0.029-0.159,0.073-0.232
		c0.072-0.102,0.275-0.188,0.436-0.188C90.799,25.488,90.916,25.517,90.944,25.545z"/>
	<path d="M97.424,27.958c-0.203,0.406-0.74,0.712-1.22,0.799c-0.029,0-0.044,0.043-0.044,0.072c0.029,0.16,0.029,0.262,0.029,0.407
		c0,1.002-0.378,2.092-1.075,2.644c-0.334,0.276-0.9,0.523-1.133,0.625c-0.087,0.043-0.218,0.102-0.334,0.174
		c-0.131,0.087-0.262,0.189-0.262,0.319c0,0.103,0.073,0.218,0.349,0.378c0.494,0.291,1.424,0.77,1.845,1.104
		c0.538,0.421,0.712,0.712,0.712,1.089c0,0.465-0.436,1.191-1.293,1.686c-0.639,0.363-1.221,0.465-1.656,0.465
		c-1.452,0-2.367-0.857-2.367-1.802c0-0.421,0.857-1.089,2.105-1.888c0.016-0.015,0.016-0.044,0-0.059
		c-0.406-0.291-0.479-0.45-0.479-0.625c0-0.043,0.043-0.131,0.072-0.159c0.116-0.16,0.581-0.465,0.712-0.552
		c0,0,0.029-0.044-0.015-0.044c-0.712-0.16-0.973-0.813-0.973-1.481c0-1.177,0.552-2.296,1.379-2.862
		c0.422-0.29,1.047-0.508,1.265-0.508c0.29,0,0.493,0.116,0.741,0.261c0.159,0.102,0.348,0.204,0.653,0.204
		c0.276,0,0.653-0.029,1.002-0.494C97.468,27.725,97.454,27.899,97.424,27.958z M95.594,36.063c0-0.45-0.218-0.727-0.596-1.017
		c-0.552-0.437-1.365-0.872-1.568-0.872s-1.715,0.944-1.715,1.496c0,0.813,1.09,1.511,2.15,1.496
		C95.086,37.153,95.594,36.615,95.594,36.063z M95.463,29.657c0-0.843-0.262-1.438-0.93-1.438c-0.915,0-1.409,1.408-1.409,2.411
		c0,0.712,0.232,1.467,1.003,1.467C94.926,32.097,95.463,30.747,95.463,29.657z"/>
	<path d="M98.981,28.64c-0.115,0-0.493,0.276-0.856,0.653c-0.015,0-0.044-0.015-0.044-0.029c0-0.043,0.015-0.174,0.044-0.218
		c0.61-0.755,1.38-1.292,1.583-1.292c0.189,0,0.175,0.436-0.029,1.38c-0.159,0.755-0.465,2.251-0.566,2.861
		c-0.102,0.625-0.072,0.93,0.262,0.93c0.523,0,1.555-1.162,2.164-2.193c0.16-0.276,0.32-0.64,0.422-1.003
		c0.116-0.436,0.262-1.249,0.363-1.496c0.102-0.131,0.581-0.406,0.828-0.479c0.014,0.014,0.043,0.087,0.029,0.115
		c-0.175,0.232-0.276,0.553-0.335,0.8c-0.261,1.147-0.552,2.716-0.653,3.588c-0.029,0.305-0.029,0.552,0.116,0.552
		c0.175,0,0.45-0.218,0.872-0.727c0.014,0,0.028,0.029,0.028,0.044c0,0.058,0,0.188-0.028,0.247
		c-0.538,0.828-1.337,1.365-1.599,1.365c-0.203,0-0.261-0.334-0.131-1.133c0.073-0.465,0.204-1.147,0.291-1.627
		c0-0.015-0.029-0.015-0.044,0c-0.668,1.046-1.453,1.801-2.004,2.236c-0.451,0.35-0.756,0.523-1.061,0.523
		c-0.232,0-0.437-0.232-0.262-1.365c0.131-0.799,0.508-2.658,0.653-3.355C99.054,28.829,99.083,28.64,98.981,28.64z"/>
	<path d="M107.206,28.495c0.363-0.45,0.741-0.755,0.959-0.755c0.16,0,0.393,0.072,0.494,0.305c0.014,0.029,0,0.146,0,0.16
		c-0.044,0.174-0.363,0.639-0.494,0.726c-0.059,0.029-0.087,0.029-0.116,0.015c-0.146-0.203-0.334-0.319-0.494-0.319
		c-0.247,0-0.813,0.77-1.321,1.874c-0.203,0.436-0.451,1.278-0.596,1.903c-0.044,0.188-0.131,0.683-0.088,0.842
		c-0.131,0.203-0.682,0.494-0.755,0.494c-0.087,0-0.087-0.072-0.087-0.102c0.014-0.203,0.784-3.457,0.857-4.562
		c0.014-0.159-0.029-0.262-0.088-0.262c-0.131,0-0.436,0.218-0.828,0.596c0,0-0.043,0-0.043-0.028c0-0.044,0.014-0.189,0.029-0.219
		c0.58-0.697,1.408-1.423,1.611-1.423c0.131,0,0.204,0.13,0.073,1.031c-0.087,0.581-0.175,0.958-0.262,1.409
		c0,0.014,0.029,0.014,0.044,0C106.421,29.57,106.785,29.018,107.206,28.495z"/>
	<path d="M114.049,32.228c0.016,0.044,0.016,0.218-0.014,0.262c-0.407,0.668-1.177,1.249-1.453,1.249
		c-0.203,0-0.319-0.291-0.218-1.104c0.044-0.335,0.146-1.032,0.232-1.482c0.015-0.029-0.015-0.043-0.029-0.015
		c-0.843,1.308-2.193,2.601-2.745,2.601c-0.509,0-0.61-0.857-0.61-1.336c0-1.235,0.465-2.571,1.308-3.473
		c0.363-0.377,1.409-1.162,2.455-1.162c0.436,0,0.828,0.059,1.09,0.116c-0.248,0.538-0.291,0.771-0.32,0.872
		c-0.232,0.843-0.609,3.021-0.639,3.689c-0.015,0.319,0.058,0.393,0.145,0.393c0.131,0,0.363-0.131,0.771-0.625
		C114.021,32.213,114.049,32.213,114.049,32.228z M112.379,30.95c0.218-0.363,0.377-0.77,0.479-1.191
		c0.146-0.581,0.305-1.22,0.378-1.365c-0.146-0.072-0.582-0.131-0.901-0.131c-0.827,0-1.395,0.509-1.729,1.119
		c-0.479,0.886-0.61,1.771-0.61,2.498c0,0.653,0.146,0.974,0.465,0.974C110.811,32.853,111.508,32.359,112.379,30.95z"/>
	<path d="M116.682,32.068c-0.073,0.61,0.014,0.843,0.217,0.843c0.437,0,0.959-0.566,1.191-0.857c0.015-0.014,0.044,0,0.029,0.015
		c0.015,0.044,0,0.204-0.015,0.247c-0.392,0.566-1.38,1.424-1.932,1.424c-0.204,0-0.349-0.247-0.319-0.813
		c0.029-0.625,0.522-3.21,0.755-4.445c0-0.015,0-0.058-0.028-0.058c-0.422,0-0.771,0-0.974-0.029v-0.072
		c0.087-0.131,0.45-0.334,0.522-0.363c0.059-0.015,0.189,0,0.537-0.015c0.029,0,0.059-0.029,0.059-0.044
		c0.189-0.828,0.32-1.467,0.422-1.67c0.087-0.189,0.77-0.771,0.9-0.828c0.029-0.015,0.087,0.087,0.058,0.131
		c-0.146,0.174-0.276,0.465-0.349,0.784c-0.116,0.479-0.246,1.061-0.334,1.54c-0.015,0.028,0,0.087,0.029,0.087
		c0.596,0.029,1.539-0.073,1.656-0.131c0,0.029-0.015,0.102-0.044,0.131c-0.058,0.072-0.436,0.262-0.727,0.334
		c-0.29,0.072-0.509,0.116-0.958,0.131c-0.029,0-0.073,0.029-0.088,0.087C117.059,29.627,116.769,31.342,116.682,32.068z"/>
	<path d="M121.477,32.17c0.015,0.043,0,0.218-0.029,0.261c-0.653,0.944-1.365,1.308-1.496,1.308c-0.232,0-0.319-0.406-0.115-1.38
		l0.653-3.327c0.044-0.261,0.044-0.377-0.044-0.377c-0.145,0-0.465,0.262-0.712,0.479c0,0-0.028,0-0.028-0.015
		c-0.016-0.044,0-0.203,0.028-0.232c0.479-0.566,1.235-1.147,1.468-1.147c0.145,0,0.188,0.188,0.043,0.944
		c-0.203,1.002-0.639,3.035-0.711,3.719c-0.029,0.261,0,0.392,0.13,0.392c0.16,0,0.393-0.203,0.784-0.653
		C121.448,32.141,121.477,32.156,121.477,32.17z M121.68,25.545c0.073,0.073,0.088,0.175,0.088,0.232
		c0,0.232-0.146,0.422-0.232,0.465c-0.102,0.059-0.363,0.073-0.451,0.044c-0.13-0.044-0.188-0.188-0.188-0.378
		c0.015-0.102,0.029-0.159,0.073-0.232c0.072-0.102,0.275-0.188,0.436-0.188C121.536,25.488,121.652,25.517,121.68,25.545z"/>
	<path d="M126.461,28.205c0-0.029,0-0.073,0.043-0.116c0.189-0.175,0.553-0.334,0.697-0.334c0.116,0.058,0.291,0.305,0.291,0.827
		c0,1.09-0.93,2.601-1.642,3.472c-0.784,0.959-1.221,1.293-1.525,1.525c-0.204,0.146-0.334,0.175-0.407,0.175
		c-0.115,0-0.203-0.494-0.188-1.191c0.015-0.944,0.131-2.833,0.146-3.559c0-0.146-0.029-0.319-0.131-0.319
		c-0.131,0-0.422,0.203-0.813,0.653c0,0-0.044-0.015-0.044-0.044c0-0.058,0.029-0.218,0.044-0.247
		c0.175-0.261,0.596-0.726,0.958-1.017c0.276-0.218,0.407-0.275,0.509-0.275c0.16,0,0.232,0.319,0.188,1.205
		c-0.072,1.322-0.115,2.527-0.13,3.065c-0.015,0.421-0.015,0.683,0.044,0.813c0.043,0.102,0.13,0.116,0.246,0.029
		c0.668-0.538,2.063-2.499,2.063-3.589C126.809,28.814,126.694,28.48,126.461,28.205z"/>
	<path d="M132.317,28.452c0,0.668-0.508,1.234-1.176,1.641c-0.566,0.349-1.191,0.581-1.613,0.741
		c-0.043,0.015-0.072,0.072-0.072,0.116c-0.015,0.102-0.029,0.247-0.029,0.465c0,1.031,0.305,1.555,0.944,1.555
		c0.479,0,1.046-0.175,1.758-0.988c0.015,0,0.044,0.029,0.044,0.044c0,0.058-0.059,0.261-0.073,0.29
		c-0.639,0.828-1.627,1.395-2.368,1.395c-0.755,0-1.031-0.828-1.031-1.771c0-1.018,0.334-2.455,1.134-3.24
		c0.595-0.581,1.511-0.958,1.888-0.958C132.055,27.74,132.317,28.088,132.317,28.452z M129.542,30.413
		c-0.015,0.072,0.029,0.072,0.044,0.072c0.421-0.102,0.915-0.291,1.365-0.566c0.363-0.232,0.639-0.552,0.639-1.075
		c0-0.29-0.159-0.596-0.522-0.596C130.516,28.248,129.775,28.945,129.542,30.413z"/>
	<path d="M137.158,32.053c1.22-2.092,3.05-5.796,3.472-6.667c0.174-0.349,0.305-0.653,0.349-0.799c0.087,0,0.175,0.015,0.262,0.015
		c0.102,0,0.174-0.015,0.261-0.015c-0.014,0.131,0.044,0.45,0.088,0.74c0.116,0.727,0.943,5.913,1.133,6.987
		c0.16,0.887,0.291,0.9,1.234,1.018c0.044,0.043,0.015,0.203-0.029,0.218c-0.232,0-0.58-0.044-1.408-0.044
		c-0.77,0-1.337,0.044-1.555,0.044c-0.029-0.029-0.029-0.204,0.015-0.218c0.306-0.044,0.538-0.059,0.727-0.131
		c0.188-0.073,0.232-0.32,0.218-0.422c-0.059-0.653-0.32-2.223-0.45-2.978c0,0-0.044-0.059-0.059-0.059
		c-0.159-0.015-0.552-0.015-1.423-0.015c-0.959,0-1.031,0-1.104,0.015c-0.044,0.015-0.087,0.059-0.102,0.088
		c-0.378,0.683-1.206,2.339-1.395,2.789c-0.102,0.247-0.16,0.552,0.247,0.624c0.16,0.029,0.334,0.059,0.609,0.088
		c0.029,0.014,0.029,0.203-0.028,0.218c-0.247,0-0.683-0.044-1.525-0.044c-0.697,0-1.075,0.044-1.264,0.044
		c-0.029-0.015-0.029-0.175,0-0.189C136.387,33.23,136.533,33.114,137.158,32.053z M139.119,29.192
		c-0.015,0.029-0.029,0.087,0.015,0.102c0.102,0.015,0.291,0.029,1.336,0.029c0.291,0,0.741,0,0.9-0.015
		c0.016,0,0.044-0.044,0.044-0.102l-0.552-3.457c-0.015,0-0.043,0.015-0.059,0.015C140.469,26.417,139.424,28.539,139.119,29.192z"
		/>
	<path d="M147.838,28.495c0.363-0.45,0.74-0.755,0.959-0.755c0.159,0,0.392,0.072,0.493,0.305c0.015,0.029,0,0.146,0,0.16
		c-0.044,0.174-0.362,0.639-0.493,0.726c-0.059,0.029-0.088,0.029-0.117,0.015c-0.145-0.203-0.334-0.319-0.493-0.319
		c-0.247,0-0.813,0.77-1.322,1.874c-0.203,0.436-0.45,1.278-0.596,1.903c-0.044,0.188-0.13,0.683-0.087,0.842
		c-0.131,0.203-0.683,0.494-0.756,0.494c-0.087,0-0.087-0.072-0.087-0.102c0.015-0.203,0.784-3.457,0.857-4.562
		c0.015-0.159-0.029-0.262-0.087-0.262c-0.131,0-0.436,0.218-0.828,0.596c0,0-0.044,0-0.044-0.028c0-0.044,0.015-0.189,0.029-0.219
		c0.581-0.697,1.409-1.423,1.612-1.423c0.131,0,0.203,0.13,0.072,1.031c-0.087,0.581-0.174,0.958-0.262,1.409
		c0,0.014,0.029,0.014,0.044,0C147.053,29.57,147.417,29.018,147.838,28.495z"/>
	<path d="M151.53,32.068c-0.072,0.61,0.015,0.843,0.218,0.843c0.437,0,0.959-0.566,1.191-0.857c0.015-0.014,0.044,0,0.028,0.015
		c0.016,0.044,0,0.204-0.014,0.247c-0.393,0.566-1.381,1.424-1.932,1.424c-0.204,0-0.35-0.247-0.32-0.813
		c0.029-0.625,0.523-3.21,0.756-4.445c0-0.015,0-0.058-0.029-0.058c-0.422,0-0.77,0-0.974-0.029v-0.072
		c0.087-0.131,0.45-0.334,0.523-0.363c0.058-0.015,0.188,0,0.537-0.015c0.029,0,0.058-0.029,0.058-0.044
		c0.189-0.828,0.32-1.467,0.422-1.67c0.087-0.189,0.77-0.771,0.9-0.828c0.029-0.015,0.088,0.087,0.059,0.131
		c-0.146,0.174-0.276,0.465-0.349,0.784c-0.116,0.479-0.247,1.061-0.335,1.54c-0.014,0.028,0,0.087,0.029,0.087
		c0.596,0.029,1.54-0.073,1.656-0.131c0,0.029-0.015,0.102-0.043,0.131c-0.059,0.072-0.437,0.262-0.727,0.334
		c-0.291,0.072-0.509,0.116-0.959,0.131c-0.029,0-0.072,0.029-0.087,0.087C151.908,29.627,151.617,31.342,151.53,32.068z"/>
	<path d="M156.325,32.17c0.015,0.043,0,0.218-0.029,0.261c-0.653,0.944-1.365,1.308-1.496,1.308c-0.232,0-0.319-0.406-0.115-1.38
		l0.653-3.327c0.044-0.261,0.044-0.377-0.044-0.377c-0.145,0-0.465,0.262-0.712,0.479c0,0-0.028,0-0.028-0.015
		c-0.016-0.044,0-0.203,0.028-0.232c0.479-0.566,1.235-1.147,1.468-1.147c0.145,0,0.188,0.188,0.043,0.944
		c-0.203,1.002-0.639,3.035-0.711,3.719c-0.029,0.261,0,0.392,0.13,0.392c0.16,0,0.393-0.203,0.784-0.653
		C156.295,32.141,156.325,32.156,156.325,32.17z M156.528,25.545c0.073,0.073,0.088,0.175,0.088,0.232
		c0,0.232-0.146,0.422-0.232,0.465c-0.102,0.059-0.363,0.073-0.451,0.044c-0.13-0.044-0.188-0.188-0.188-0.378
		c0.015-0.102,0.029-0.159,0.073-0.232c0.072-0.102,0.275-0.188,0.436-0.188C156.383,25.488,156.5,25.517,156.528,25.545z"/>
	<path d="M160.931,27.958c0,0.015,0.029,0.058,0,0.145c-0.058,0.16-0.247,0.422-0.363,0.553c-0.028,0.029-0.072,0.015-0.102,0
		c-0.116-0.175-0.407-0.363-0.741-0.363c-0.45,0-0.828,0.349-0.828,0.9c0,0.349,0.146,0.625,0.814,1.234
		c0.697,0.64,0.93,0.93,0.93,1.322c0,0.319-0.117,0.813-0.727,1.352c-0.596,0.508-1.148,0.639-1.555,0.639
		c-0.393,0-0.668-0.146-0.799-0.291c-0.087-0.087-0.116-0.203-0.116-0.29s0.146-0.625,0.29-0.784
		c0.044-0.044,0.117-0.029,0.117-0.015c0.072,0.566,0.522,0.9,1.061,0.9c0.595,0,1.06-0.392,1.06-0.93
		c0-0.421-0.159-0.697-0.915-1.38c-0.609-0.552-0.727-0.886-0.727-1.234c0-0.422,0.146-0.887,0.684-1.366
		c0.508-0.45,1.061-0.609,1.365-0.609C160.728,27.74,160.931,27.884,160.931,27.958z"/>
	<path d="M163.315,32.068c-0.072,0.61,0.016,0.843,0.219,0.843c0.436,0,0.959-0.566,1.191-0.857c0.014-0.014,0.043,0,0.028,0.015
		c0.015,0.044,0,0.204-0.015,0.247c-0.393,0.566-1.38,1.424-1.932,1.424c-0.203,0-0.349-0.247-0.32-0.813
		c0.029-0.625,0.523-3.21,0.756-4.445c0-0.015,0-0.058-0.029-0.058c-0.421,0-0.77,0-0.973-0.029v-0.072
		c0.087-0.131,0.45-0.334,0.522-0.363c0.059-0.015,0.188,0,0.538-0.015c0.029,0,0.058-0.029,0.058-0.044
		c0.188-0.828,0.319-1.467,0.421-1.67c0.088-0.189,0.771-0.771,0.901-0.828c0.028-0.015,0.087,0.087,0.058,0.131
		c-0.145,0.174-0.275,0.465-0.349,0.784c-0.116,0.479-0.247,1.061-0.334,1.54c-0.015,0.028,0,0.087,0.029,0.087
		c0.596,0.029,1.54-0.073,1.655-0.131c0,0.029-0.014,0.102-0.043,0.131c-0.059,0.072-0.436,0.262-0.727,0.334
		c-0.29,0.072-0.508,0.116-0.959,0.131c-0.028,0-0.072,0.029-0.087,0.087C163.693,29.627,163.403,31.342,163.315,32.068z"/>
</g>
</svg>
