<?xml version="1.0" encoding="utf-8"?>
<!-- Generator: Adobe Illustrator 19.1.0, SVG Export Plug-In . SVG Version: 6.00 Build 0)  -->
<svg version="1.1" id="Layer_1" xmlns="http://www.w3.org/2000/svg" xmlns:xlink="http://www.w3.org/1999/xlink" x="0px" y="0px"
	 viewBox="-241 383 150 27" style="enable-background:new -241 383 150 27;" xml:space="preserve">
<style type="text/css">
	.st0{enable-background:new    ;}
	.st1{fill:#FFFFFF;}
</style>
<g class="st0">
	<path class="st1" d="M-229.6,388.1c1.8,0,3.5,0.5,5.1,1.5c0.1,0.1,0.2,0.1,0.3,0.1c0.1,0,0.1,0,0.2-0.1l0.2-0.2
		c0.1-0.1,0.1-0.1,0.2-0.1c0.2,0,0.2,0.1,0.2,0.4v1.1l0.2,1.8c0,0.2,0,0.3,0,0.4c0,0.3-0.1,0.4-0.3,0.4c-0.2,0-0.3-0.2-0.4-0.6
		c-0.3-1.1-0.9-2.1-1.8-2.8c-1.2-1-2.5-1.4-3.9-1.4c-1.8,0-3.3,0.7-4.4,2.1s-1.7,3.2-1.7,5.4c0,2.2,0.5,4,1.6,5.5s2.5,2.1,4.2,2.1
		c1.2,0,2.3-0.3,3.3-1s1.7-1.5,2-2.4c0.1-0.5,0.3-0.7,0.5-0.7c0.2,0,0.3,0.2,0.3,0.5c0,0.3-0.1,0.6-0.2,0.9l-0.2,0.8l-0.1,0.5
		c0,0.2-0.1,0.3-0.2,0.4s-0.3,0.2-0.7,0.5c-1.6,0.9-3.3,1.4-5.1,1.4c-2.3,0-4.1-0.7-5.4-2s-2-3.2-2-5.6c0-2.6,0.7-4.7,2.2-6.4
		S-231.9,388.1-229.6,388.1z"/>
	<path class="st1" d="M-219.8,396.8c1.2-1.4,2.3-2.1,3.3-2.1c0.6,0,1.1,0.2,1.4,0.7c0.3,0.4,0.5,1,0.5,1.8c0,0.3,0,0.6,0,0.8l-0.3,3
		c0,0.3-0.1,0.7-0.1,1c0,0.7,0.2,1,0.5,1c0.5,0,1-0.4,1.5-1.2c0.1-0.2,0.2-0.2,0.3-0.2c0.1,0,0.2,0.1,0.2,0.2c0,0.4-0.2,0.8-0.7,1.4
		c-0.6,0.8-1.3,1.2-2.1,1.2c-0.7,0-1.1-0.7-1.1-2.2c0-0.3,0-0.6,0-1l0.2-3.3c0-0.3,0-0.5,0-0.7c0-0.9-0.4-1.4-1.1-1.4
		c-0.7,0-1.3,0.3-1.9,0.8c-0.5,0.5-0.9,1.3-1,2.4l-0.6,4.7l0,0.1c0,0.3-0.3,0.5-0.7,0.5c-0.4,0-0.6-0.1-0.6-0.4V404l0-0.1l1.8-14.3
		c0-0.3,0.1-0.5,0.1-0.6c0-0.3-0.2-0.4-0.6-0.4h-0.6c-0.3,0-0.5-0.1-0.5-0.2c0-0.2,0.2-0.3,0.5-0.3c0.9,0,1.5-0.1,1.9-0.2
		c0.2,0,0.4-0.1,0.5-0.1c0.2,0,0.2,0.1,0.2,0.3c0,0,0,0.1,0,0.1L-219.8,396.8z"/>
	<path class="st1" d="M-210.4,399.6l0.5-2.9c0-0.2,0.1-0.4,0.1-0.6c0-0.3-0.2-0.5-0.7-0.5h-0.6c-0.3,0-0.5-0.1-0.5-0.2
		c0-0.2,0.2-0.3,0.5-0.3c0.7,0,1.4-0.1,2.1-0.2c0.3,0,0.5-0.1,0.6-0.1c0.2,0,0.2,0.1,0.2,0.3l0,0.1l-0.6,3.2
		c-0.3,1.6-0.5,2.8-0.5,3.7c0,0.5,0.1,0.7,0.4,0.7c0.4,0,0.7-0.3,1-1c0.1-0.2,0.2-0.3,0.3-0.3c0.1,0,0.2,0.1,0.2,0.2
		c0,0.5-0.3,1.1-0.9,1.7s-1.1,0.9-1.5,0.9c-0.2,0-0.4-0.2-0.6-0.5c-0.1-0.3-0.2-0.8-0.2-1.3C-210.7,402-210.6,401-210.4,399.6z
		 M-208.3,390.1c0.1,0,0.1,0.1,0.2,0.2c0.1,0.2,0.2,0.4,0.2,0.4l0.3,0.4c0.1,0.1,0.1,0.2,0.1,0.2c0,0.1-0.1,0.2-0.2,0.3
		c-0.2,0.2-0.4,0.4-0.6,0.7c-0.1,0.1-0.2,0.2-0.3,0.2c-0.1,0-0.2-0.1-0.2-0.2c-0.2-0.3-0.3-0.6-0.4-0.8c-0.1-0.1-0.1-0.2-0.1-0.2
		c0-0.1,0-0.2,0.1-0.3l0.3-0.3c0,0,0.1-0.2,0.3-0.4C-208.5,390.1-208.4,390-208.3,390.1z"/>
	<path class="st1" d="M-202.4,395c0.7-0.1,1.3-0.2,1.7-0.2c1.2,0,2.2,0.3,2.9,0.9c0.7,0.6,1.1,1.3,1.1,2.3c0,0.9-0.2,1.8-0.6,2.7
		c-0.4,0.9-1,1.7-1.7,2.3c-1,0.9-2.1,1.3-3.3,1.3c-0.3,0-0.4,0-0.6,0c-0.2,0-0.3,0-0.3,0c-0.2,0-0.3,0.1-0.3,0.3l0,0.3l-0.2,1.8
		c0,0.1,0,0.2,0,0.4c0,0.3,0.1,0.5,0.2,0.6s0.4,0.2,0.9,0.3l0.4,0.1c0.2,0,0.4,0.1,0.4,0.3c0,0.2-0.2,0.3-0.5,0.3
		c-0.2,0-0.4,0-0.6,0l-0.2,0c-0.3,0-0.6-0.1-1.1-0.1c-0.5,0-0.8,0-1.1,0.1l-0.3,0c-0.1,0-0.3,0-0.3,0c-0.3,0-0.5-0.1-0.5-0.3
		c0-0.1,0.1-0.2,0.3-0.3c0.4-0.1,0.6-0.2,0.7-0.3s0.2-0.5,0.3-1.1l1.3-10.5c-0.3,0.1-0.6,0.2-0.8,0.3l-0.3,0.1l-0.2,0
		c-0.1,0-0.1,0-0.2,0c-0.1,0-0.1,0-0.1-0.1l0-0.1l0.1-0.2c0-0.1,0.1-0.2,0.3-0.2c0.1,0,0.2-0.1,0.5-0.2c0.1,0,0.3-0.1,0.5-0.2
		l0.3-0.1l0.1-0.5c0.1-1.2,0.3-2,0.5-2.4c0.2-0.4,0.6-0.6,1.1-0.6c0.2,0,0.3,0.1,0.3,0.2c0,0.1,0,0.3-0.1,0.6
		c-0.1,0.4-0.3,0.9-0.3,1.3L-202.4,395z M-202.4,395.6l-0.9,7.1c0,0.1,0,0.3,0,0.4c0,0.4,0.3,0.6,1,0.6c1.1,0,2.1-0.5,2.8-1.6
		s1.2-2.3,1.2-3.8c0-0.9-0.3-1.6-0.8-2.1c-0.5-0.5-1.3-0.7-2.3-0.7C-201.7,395.5-202.1,395.6-202.4,395.6z"/>
	<path class="st1" d="M-172.4,391.6l-0.2,10.3c0,0.7,0.1,1.2,0.2,1.4s0.5,0.4,1,0.5c0.5,0.1,0.7,0.2,0.7,0.4c0,0.1-0.1,0.2-0.4,0.2
		c-0.1,0-0.2,0-0.3,0c-0.5-0.1-1.1-0.1-1.7-0.1c-0.5,0-1,0-1.4,0.1l-0.4,0l-0.2,0c-0.1,0-0.1,0-0.2,0c-0.3,0-0.5-0.1-0.5-0.3
		c0-0.1,0.1-0.2,0.4-0.3c0.6-0.2,0.9-0.5,0.9-1.1l0-0.6l0.1-8.8c0-0.2,0-0.4-0.1-0.4c-0.1,0-0.3,0.3-0.6,0.9l-4.9,10.1l-0.1,0.2
		c-0.1,0.1-0.1,0.2-0.3,0.2c-0.1,0-0.3-0.2-0.4-0.5l-4.4-10.2c-0.1-0.2-0.1-0.3-0.2-0.3c-0.1,0-0.1,0.1-0.2,0.4l-1.4,8
		c-0.1,0.4-0.1,0.7-0.1,0.9c0,0.7,0.4,1,1.2,1.1c0.5,0.1,0.8,0.2,0.8,0.4c0,0.2-0.2,0.3-0.5,0.3c-0.1,0-0.2,0-0.3,0
		c-0.4-0.1-1-0.1-1.6-0.1c-0.5,0-1,0-1.6,0.1c-0.2,0-0.3,0-0.4,0c-0.3,0-0.5-0.1-0.5-0.3c0-0.2,0.2-0.3,0.6-0.4
		c0.4-0.1,0.7-0.2,0.8-0.4s0.3-0.6,0.4-1.3l0.3-1.2l0.7-4c0.4-2.1,0.6-3.7,0.6-4.8c0-0.9-0.2-1.6-0.5-2.2c-0.3-0.6-0.8-0.9-1.3-0.9
		c-0.1,0-0.1,0-0.2,0c-0.3,0-0.4,0-0.5,0c-0.2,0-0.3-0.1-0.3-0.2c0-0.3,0.4-0.5,1.1-0.5c1.4,0,2.2,0,2.4,0.1
		c0.2,0.1,0.3,0.3,0.4,0.6l1.8,4.1c0.2,0.5,0.6,1.3,1,2.3c0.4,1.1,0.8,1.9,1,2.4l1.4,3.3l0.2,0.4c0.1,0,0.2-0.2,0.4-0.6l3.8-7.8
		c0.5-1,0.9-1.8,1-2.1l0.8-1.7l0.3-0.7c0.1-0.2,0.3-0.3,0.5-0.3c0.4,0,0.6,0,0.7,0l1.1,0l0.3,0.1c0.1,0,0.1,0.1,0.1,0.2
		c0,0.1-0.2,0.2-0.7,0.4c-0.4,0.1-0.6,0.4-0.7,0.8S-172.4,390.8-172.4,391.6z"/>
	<path class="st1" d="M-164.3,394.8c1,0,1.9,0.3,2.5,1s0.9,1.6,0.9,2.8c0,1.6-0.5,3.1-1.4,4.2s-2,1.7-3.4,1.7c-1,0-1.8-0.4-2.4-1.1
		s-0.9-1.7-0.9-2.9c0-0.9,0.2-1.7,0.5-2.6s0.8-1.6,1.4-2.1C-166.2,395.1-165.3,394.8-164.3,394.8z M-164.2,395.3
		c-0.9,0-1.6,0.5-2.2,1.5c-0.6,1-0.9,2.3-0.9,3.7c0,2.2,0.7,3.3,2,3.3c0.8,0,1.5-0.5,2.1-1.6c0.6-1.1,0.9-2.4,0.9-3.9
		C-162.4,396.4-163,395.3-164.2,395.3z"/>
	<path class="st1" d="M-158.1,399.7c0,0.3-0.1,0.6-0.1,0.8c0,0.8,0.3,1.5,0.8,2c0.5,0.6,1.2,0.8,1.9,0.8c1,0,1.7-0.3,2.3-0.9
		c0.2-0.2,0.3-0.3,0.4-0.3c0.1,0,0.2,0.1,0.2,0.2c0,0.3-0.3,0.6-0.8,1c-0.9,0.7-1.9,1-3,1c-1,0-1.7-0.3-2.3-0.9s-0.8-1.4-0.8-2.4
		c0-1.6,0.5-3,1.6-4.4c1.1-1.4,2.2-2,3.4-2c0.6,0,1.1,0.2,1.5,0.5s0.6,0.7,0.6,1.2c0,0.9-0.6,1.7-1.8,2.4
		C-155.3,399.5-156.5,399.7-158.1,399.7z M-158,399.3c1.2,0,2.2-0.3,3-0.8s1.2-1.2,1.2-2c0-0.7-0.4-1.1-1.1-1.1
		c-0.6,0-1.3,0.4-1.9,1.2C-157.4,397.2-157.8,398.1-158,399.3z"/>
	<path class="st1" d="M-148.4,397.9l1.7,1.8c0.5,0.6,0.8,1.3,0.8,2s-0.3,1.5-0.9,2s-1.4,0.8-2.3,0.8c-0.7,0-1.3-0.1-1.7-0.4
		c-0.5-0.3-0.7-0.6-0.7-1c0-0.5,0.2-0.7,0.7-0.7c0.3,0,0.5,0.2,0.8,0.6l0.2,0.4c0.2,0.4,0.5,0.6,1,0.6c0.5,0,0.9-0.1,1.2-0.4
		c0.3-0.3,0.5-0.6,0.5-1c0-0.6-0.3-1.3-0.9-1.9l-1.3-1.4c-0.6-0.6-0.9-1.3-0.9-2c0-0.8,0.3-1.3,0.8-1.8s1.2-0.6,2.1-0.6
		c1.3,0,1.9,0.4,1.9,1.1c0,0.5-0.2,0.7-0.7,0.7c-0.2,0-0.4-0.1-0.6-0.4l-0.3-0.4c-0.2-0.4-0.6-0.5-1-0.5c-0.7,0-1,0.4-1,1.1
		C-149.2,396.8-148.9,397.3-148.4,397.9z"/>
	<path class="st1" d="M-142.8,399.7c0,0.3-0.1,0.6-0.1,0.8c0,0.8,0.3,1.5,0.8,2c0.5,0.6,1.2,0.8,1.9,0.8c1,0,1.7-0.3,2.3-0.9
		c0.2-0.2,0.3-0.3,0.4-0.3c0.1,0,0.2,0.1,0.2,0.2c0,0.3-0.3,0.6-0.8,1c-0.9,0.7-1.9,1-3,1c-1,0-1.7-0.3-2.3-0.9s-0.8-1.4-0.8-2.4
		c0-1.6,0.5-3,1.6-4.4c1.1-1.4,2.2-2,3.4-2c0.6,0,1.1,0.2,1.5,0.5s0.6,0.7,0.6,1.2c0,0.9-0.6,1.7-1.8,2.4
		C-139.9,399.5-141.2,399.7-142.8,399.7z M-142.7,399.3c1.2,0,2.2-0.3,3-0.8s1.2-1.2,1.2-2c0-0.7-0.4-1.1-1.1-1.1
		c-0.6,0-1.3,0.4-1.9,1.2C-142.1,397.2-142.5,398.1-142.7,399.3z"/>
	<path class="st1" d="M-132.8,397.3c0.9-1.6,1.8-2.4,2.7-2.4c0.5,0,0.8,0.2,0.8,0.6c0,0.1,0,0.2-0.1,0.4c-0.1,0.2-0.1,0.3-0.1,0.3
		l-0.1,0.6c-0.1,0.3-0.2,0.4-0.4,0.4c-0.1,0-0.2-0.1-0.3-0.3c-0.2-0.4-0.5-0.7-0.8-0.7c-0.4,0-0.7,0.4-0.9,1.2
		c-0.3,0.8-0.5,2.1-0.7,3.8l-0.3,2.7l0,0.1c0,0.3-0.3,0.5-0.7,0.5c-0.4,0-0.6-0.1-0.6-0.4c0-0.1,0-0.1,0-0.2l0.6-4.6
		c0-0.3,0-0.6,0-0.9c0-1.2-0.3-1.7-0.8-1.7c-0.2,0-0.4,0.1-0.6,0.4c-0.2,0.3-0.3,0.6-0.4,1c0,0.3-0.1,0.4-0.3,0.4
		c-0.2,0-0.3-0.2-0.3-0.6c0-0.8,0.2-1.5,0.6-2c0.2-0.2,0.4-0.5,0.7-0.7c0.3-0.2,0.5-0.3,0.7-0.3
		C-133.6,394.9-133.2,395.7-132.8,397.3z"/>
	<path class="st1" d="M-124.2,401.1c0,0,0.1,0.1,0.1,0.3c0,0.2,0,0.4,0,0.4s-0.1,0.1-0.3,0.2c-0.3,0.1-0.5,0.2-0.7,0.2
		c-0.4,0.2-0.7,0.3-0.8,0.3c-0.1,0-0.2,0.1-0.2,0.1c0,0-0.1,0-0.1,0.1c-0.1,0-0.1-0.1-0.1-0.2c0-0.3,0-0.5,0.1-0.5
		c0-0.1,0.2-0.1,0.4-0.2c0.1,0,0.3-0.1,0.6-0.2c0.1,0,0.3-0.1,0.6-0.2C-124.5,401.2-124.3,401.1-124.2,401.1L-124.2,401.1z"/>
	<path class="st1" d="M-116.3,401.3h-2.1c-0.3,0-0.5,0-0.5,0.1s-0.2,0.2-0.3,0.5l-0.4,0.9c-0.2,0.4-0.3,0.7-0.3,0.9
		c0,0.2,0,0.3,0.1,0.4s0.3,0.2,0.5,0.2c0.1,0,0.2,0.1,0.2,0.1c0,0.1-0.1,0.1-0.2,0.1c0,0-0.1,0-0.2,0l-0.6,0c-0.2,0-0.4,0-0.6,0
		c-0.1,0-0.2,0-0.3,0c-0.2,0-0.3,0-0.3,0c-0.1,0-0.2,0-0.2-0.1c0-0.1,0-0.1,0.1-0.1l0.2-0.1c0.1,0,0.2-0.1,0.3-0.3s0.2-0.3,0.3-0.5
		l0.2-0.4l3-6.7c0.1-0.1,0.1-0.2,0.2-0.2s0.1,0.1,0.2,0.2l2.5,6.5l0.1,0.3c0.2,0.5,0.3,0.8,0.5,0.9c0.1,0.1,0.4,0.2,0.7,0.3
		c0.1,0,0.2,0.1,0.2,0.1c0,0.1-0.1,0.1-0.2,0.1c0,0-0.1,0-0.2,0c-0.2,0-0.6,0-1.1,0c-0.5,0-0.9,0-1,0c-0.1,0-0.1,0-0.2,0
		c-0.1,0-0.2,0-0.2-0.1c0-0.1,0-0.1,0.1-0.1l0.2,0c0.2,0,0.3-0.2,0.3-0.4c0-0.2-0.1-0.6-0.4-1.2l-0.3-0.8c-0.1-0.2-0.1-0.3-0.2-0.4
		S-116.1,401.3-116.3,401.3z M-116.3,400.4l-0.9-2.3l0-0.1c0-0.1-0.1-0.2-0.2-0.2c0,0-0.1,0-0.1,0.1l-1.1,2.5
		c-0.1,0.1-0.1,0.2-0.1,0.2c0,0.1,0.1,0.2,0.3,0.2l0.2,0h1.8c0.2,0,0.3,0,0.3-0.1c0,0,0-0.1,0-0.1L-116.3,400.4z"/>
	<path class="st1" d="M-111.1,400.5c0.5-0.7,0.9-1.1,1.3-1.1c0.1,0,0.3,0.1,0.5,0.2s0.3,0.3,0.3,0.4c0,0.1-0.1,0.2-0.2,0.3
		c-0.1,0.2-0.2,0.2-0.3,0.2c0,0-0.1,0-0.3-0.1c-0.2-0.1-0.3-0.2-0.5-0.2c-0.2,0-0.4,0.1-0.6,0.3c-0.2,0.2-0.2,0.4-0.2,0.6v2.1
		c0,0.3,0,0.6,0.1,0.7s0.2,0.2,0.5,0.2l0.3,0c0.1,0,0.2,0,0.2,0.1c0,0.1-0.1,0.1-0.2,0.1c0,0-0.1,0-0.3,0c-0.1,0-0.2,0-0.3,0l-0.4,0
		h-0.3c-0.3,0-0.5,0-0.7,0c-0.1,0-0.2,0-0.2,0c-0.1,0-0.2,0-0.2-0.1c0-0.1,0.1-0.1,0.2-0.1c0.2,0,0.3-0.1,0.3-0.2s0.1-0.3,0.1-0.7
		v-2.5c0-0.4-0.2-0.7-0.6-0.7l-0.2,0c-0.1,0-0.1,0-0.1-0.1c0,0,0-0.1,0.1-0.1c0,0,0.1,0,0.1,0c0.4,0,0.8-0.2,1.3-0.5
		c0.1,0,0.1,0,0.1,0c0.1,0,0.1,0.1,0.1,0.2l0,0.1V400.5z"/>
	<path class="st1" d="M-106.9,400.2v2.9c0,0.4,0.1,0.6,0.2,0.7c0.2,0.2,0.4,0.3,0.7,0.3c0.2,0,0.4,0,0.6-0.1l0.3-0.1l0,0
		c0,0,0.1,0,0.1,0.1c0,0.1-0.2,0.3-0.5,0.4c-0.3,0.1-0.6,0.2-0.9,0.2c-0.9,0-1.3-0.5-1.3-1.4v-3h-0.5c-0.1,0-0.2,0-0.2-0.1
		c0-0.1,0.1-0.1,0.2-0.2c0.5-0.4,0.8-0.8,1-1.2c0.1-0.2,0.2-0.3,0.2-0.3c0.1,0,0.1,0.1,0.1,0.2l0,1h1.2c0.2,0,0.3,0,0.4-0.1
		c0.1,0,0.1-0.1,0.1-0.1c0,0,0.1,0,0.1,0.1c0,0,0,0.1-0.1,0.1l-0.1,0.3c0,0.1-0.1,0.2-0.3,0.2H-106.9z"/>
	<path class="st1" d="M-103.1,403.4c0,0.3,0,0.5,0.1,0.6s0.2,0.2,0.4,0.2l0.3,0c0.1,0,0.2,0.1,0.2,0.1c0,0.1-0.1,0.1-0.2,0.1
		c-0.1,0-0.2,0-0.4,0c-0.1,0-0.2,0-0.4,0l-0.4,0l-0.4,0c-0.1,0-0.1,0-0.2,0c-0.1,0-0.2,0-0.2,0c-0.1,0-0.2,0-0.2-0.1
		c0-0.1,0-0.1,0.1-0.1l0.1,0c0.1,0,0.2-0.1,0.3-0.2c0-0.1,0.1-0.3,0.1-0.5v-2.6c0-0.3,0-0.5-0.1-0.6s-0.2-0.1-0.4-0.1
		c-0.1,0-0.2,0-0.2-0.1c0-0.1,0.1-0.1,0.3-0.2c0.2-0.1,0.5-0.2,0.8-0.4l0.3-0.1c0.1,0,0.1,0.1,0.1,0.1V403.4z M-103.4,397
		c0.1,0,0.2,0.1,0.3,0.2l0.1,0.2c0,0.1,0.1,0.1,0.1,0.1c0,0.1-0.1,0.2-0.2,0.4c-0.1,0.2-0.2,0.2-0.3,0.2c-0.1,0-0.2-0.1-0.3-0.2
		c-0.1-0.2-0.2-0.3-0.2-0.4s0.1-0.2,0.2-0.4C-103.6,397.1-103.5,397-103.4,397z"/>
	<path class="st1" d="M-99.9,399.5c0.3,0,0.6,0,0.8,0.1l0.3,0.1c0.1,0,0.2,0.1,0.2,0.2v0.1c0,0.1,0,0.1,0,0.2l0,0.2
		c0,0.1,0,0.2,0,0.2c0,0.2,0,0.2-0.1,0.2c0,0-0.1,0-0.1-0.2c-0.2-0.6-0.6-0.9-1.2-0.9c-0.2,0-0.4,0.1-0.6,0.2
		c-0.2,0.1-0.2,0.3-0.2,0.5c0,0.2,0.1,0.4,0.2,0.5c0.2,0.1,0.5,0.3,1,0.5c0.5,0.2,0.8,0.4,1,0.6s0.3,0.5,0.3,0.9
		c0,0.4-0.2,0.8-0.5,1.1c-0.3,0.3-0.7,0.5-1.2,0.5c-0.3,0-0.7-0.1-1.1-0.3c-0.1,0-0.1-0.1-0.2-0.1l-0.2,0c-0.1,0-0.1-0.1-0.1-0.1
		l0-0.3l0-0.7l0-0.2c0-0.1,0.1-0.2,0.1-0.2c0.1,0,0.1,0.1,0.1,0.2c0.1,0.4,0.2,0.8,0.5,1s0.5,0.4,0.9,0.4c0.3,0,0.5-0.1,0.7-0.3
		s0.3-0.4,0.3-0.6c0-0.4-0.2-0.7-0.7-0.9l-0.5-0.2c-0.5-0.2-0.8-0.4-1-0.6c-0.2-0.2-0.3-0.5-0.3-0.8c0-0.4,0.2-0.7,0.5-0.9
		S-100.3,399.5-99.9,399.5z"/>
	<path class="st1" d="M-96.2,400.2v2.9c0,0.4,0.1,0.6,0.2,0.7c0.2,0.2,0.4,0.3,0.7,0.3c0.2,0,0.4,0,0.6-0.1l0.3-0.1l0,0
		c0,0,0.1,0,0.1,0.1c0,0.1-0.2,0.3-0.5,0.4c-0.3,0.1-0.6,0.2-0.9,0.2c-0.9,0-1.3-0.5-1.3-1.4v-3h-0.5c-0.1,0-0.2,0-0.2-0.1
		c0-0.1,0.1-0.1,0.2-0.2c0.5-0.4,0.8-0.8,1-1.2c0.1-0.2,0.2-0.3,0.2-0.3c0.1,0,0.1,0.1,0.1,0.2l0,1h1.2c0.2,0,0.3,0,0.4-0.1
		c0.1,0,0.1-0.1,0.1-0.1c0,0,0.1,0,0.1,0.1c0,0,0,0.1-0.1,0.1l-0.1,0.3c0,0.1-0.1,0.2-0.3,0.2H-96.2z"/>
</g>
</svg>
